<?xml version="1.0" encoding="utf-8"?>
<!-- Generator: Adobe Illustrator 16.0.0, SVG Export Plug-In . SVG Version: 6.00 Build 0)  -->
<!DOCTYPE svg PUBLIC "-//W3C//DTD SVG 1.1//EN" "http://www.w3.org/Graphics/SVG/1.1/DTD/svg11.dtd">
<svg version="1.1" id="图层_1" xmlns="http://www.w3.org/2000/svg" xmlns:xlink="http://www.w3.org/1999/xlink" x="0px" y="0px"
	 width="200px" height="200px" viewBox="0 0 200 200" enable-background="new 0 0 200 200" xml:space="preserve">
<path d="M171.584,97.674c-0.006-5.762-4.367-10.91-12.281-14.496c-6.912-3.133-16.016-4.858-25.633-4.858
	c-0.611,0-1.223,0.007-1.832,0.021v-0.032v-6.27V56.096c0.296-1.131,0.447-2.284,0.447-3.457c0-7.378-5.936-14.03-16.713-18.729
	c-9.723-4.239-22.563-6.573-36.152-6.573s-26.429,2.334-36.152,6.573c-10.777,4.698-16.712,11.35-16.712,18.729
	c0,1.173,0.151,2.326,0.446,3.457v17.943V83.5v9.89v9.528v7.871v11.48v17.398l1.66,1.044c0.464,0.292,11.565,7.187,29.625,10.668
	c6.739,1.3,13.568,1.949,20.411,1.949c3.895,0,7.794-0.211,11.683-0.634c1.771-0.191,3.54-0.43,5.306-0.711v-7.195
	c-1.954,0.332-3.911,0.607-5.87,0.825c-9.979,1.104-20.032,0.717-29.88-1.149c-11.798-2.236-21.24-6.31-25.834-8.804v-9.463
	c5.033,2.383,13.357,5.694,24.184,7.782c6.739,1.3,13.568,1.951,20.411,1.951c3.895,0,7.794-0.211,11.683-0.635
	c1.771-0.191,3.54-0.43,5.306-0.711v-7.195c-1.954,0.332-3.911,0.607-5.87,0.824c-9.979,1.104-20.032,0.719-29.88-1.148
	c-11.798-2.235-21.24-6.31-25.834-8.805v-0.506v-7.104v-3.396v-0.411c5.033,2.383,13.357,5.694,24.184,7.782
	c6.739,1.299,13.568,1.949,20.411,1.949c3.895,0,7.794-0.211,11.683-0.634c1.771-0.191,3.54-0.43,5.306-0.711v-7.196
	c-1.954,0.332-3.911,0.608-5.87,0.825c-9.979,1.104-20.032,0.718-29.88-1.149c-11.798-2.235-21.24-6.31-25.834-8.803v-5.657v-5.347
	V87.43c5.033,2.382,13.357,5.695,24.184,7.783c6.739,1.299,13.568,1.95,20.411,1.95c3.895,0,7.794-0.211,11.683-0.633
	c1.685-0.183,3.368-0.409,5.049-0.671c0.085-0.013,0.171-0.025,0.257-0.039c0.078-0.013,0.157-0.027,0.235-0.04
	c-0.108,0.627-0.166,1.264-0.166,1.908c0,0.725,0.069,1.44,0.206,2.144v13.294v6.826v7.135v6.873v5.679v8.282v12.552l1.197,0.754
	c0.334,0.209,8.342,5.184,21.372,7.694c4.861,0.938,9.789,1.406,14.725,1.406c2.811,0,5.623-0.152,8.43-0.457
	c9.652-1.05,19.236-3.915,28.486-8.521l1.42-0.707v-12.552v-9.896v-4.063v-8.487v-5.521v-8.439v-14.01H171.584z M89.818,89.446
	c-9.979,1.104-20.032,0.718-29.88-1.149c-11.798-2.236-21.241-6.309-25.834-8.804v-5.591V68.49v-2.463
	c2.484,1.969,5.55,3.765,9.165,5.34c9.723,4.239,22.562,6.573,36.152,6.573c13.59,0,26.429-2.334,36.152-6.573
	c3.614-1.576,6.681-3.372,9.163-5.34v0.332v5.814l-0.11,0.002l0.056,6.661c-6.209,0.728-11.935,2.207-16.642,4.341
	c-2.832,1.283-5.205,2.766-7.09,4.405c-0.025,0.006-0.052,0.012-0.078,0.018c-1.725,0.384-3.453,0.726-5.184,1.02
	C93.734,88.954,91.777,89.229,89.818,89.446z M141.279,164.76c-7.199,0.797-14.452,0.518-21.557-0.828
	c-8.512-1.613-15.322-4.553-18.638-6.352v-6.826c3.631,1.719,9.636,4.107,17.446,5.614c4.861,0.937,9.787,1.407,14.725,1.407
	c2.811,0,5.622-0.152,8.43-0.457c8.369-0.91,16.688-3.188,24.782-6.78v6.916C158.253,161.361,149.785,163.818,141.279,164.76z
	 M166.43,143.416h0.039v1.486c-8.216,3.908-16.684,6.363-25.189,7.306c-7.198,0.797-14.451,0.519-21.557-0.829
	c-8.511-1.613-15.322-4.551-18.637-6.352v-0.365v-5.123v-2.448v-0.298c3.631,1.719,9.635,4.109,17.446,5.615
	c4.86,0.938,9.788,1.406,14.725,1.406c2.81,0,5.622-0.152,8.429-0.457c8.371-0.909,16.689-3.188,24.783-6.779v1.713l-0.08,0.002
	L166.43,143.416z M166.43,130.865l0.039-0.001v0.077c-8.216,3.908-16.684,6.365-25.189,7.307
	c-7.198,0.797-14.451,0.518-21.557-0.828c-8.511-1.613-15.322-4.552-18.637-6.352v-4.082v-3.855v-0.346
	c3.631,1.719,9.635,4.107,17.446,5.613c4.86,0.938,9.788,1.408,14.725,1.408c2.81,0,5.622-0.152,8.429-0.457
	c8.371-0.91,16.689-3.188,24.783-6.781v3.172l-0.08,0.002L166.43,130.865z M166.43,116.904h0.039v0.029
	c-8.216,3.907-16.684,6.364-25.189,7.307c-7.198,0.796-14.451,0.518-21.557-0.829c-8.511-1.613-15.322-4.552-18.637-6.353v-4.031
	v-3.905v-1.213c1.863,1.593,4.189,3.034,6.953,4.286c6.912,3.133,16.016,4.856,25.632,4.856s18.72-1.725,25.632-4.856
	c2.869-1.301,5.271-2.807,7.166-4.473v4.057l-0.08,0.002L166.43,116.904z"/>
</svg>
