<?xml version="1.0" encoding="utf-8"?>
<!-- Generator: Adobe Illustrator 16.0.0, SVG Export Plug-In . SVG Version: 6.00 Build 0)  -->
<!DOCTYPE svg PUBLIC "-//W3C//DTD SVG 1.1//EN" "http://www.w3.org/Graphics/SVG/1.1/DTD/svg11.dtd">
<svg version="1.1" id="图层_1" xmlns="http://www.w3.org/2000/svg" xmlns:xlink="http://www.w3.org/1999/xlink" x="0px" y="0px"
	 width="200px" height="200px" viewBox="0 0 200 200" enable-background="new 0 0 200 200" xml:space="preserve">
<g>
	<path d="M171.734,150.104c-14.484-6.412-28.953-12.846-43.418-19.299c-3.203-1.429-6.369-2.938-9.529-4.455
		c-0.694-0.334-1.074-0.306-1.613,0.267c-8.701,9.026-18.767,16.288-30.617,21.172c-7.19,2.952-14.699,4.838-22.509,5.412
		c-9.065,0.661-17.7-0.86-25.711-5.14c-5.418-2.901-9.478-7.117-12.751-12.095c-2.943-4.487-3.875-9.465-3.297-14.606
		c0.74-6.639,3.891-12.207,9.144-16.672c5.847-4.987,12.778-7.693,20.449-8.893c4.757-0.743,9.569-1.004,14.329-0.556
		c4.958,0.454,9.903,1.259,14.783,2.214c9.792,1.919,19.338,4.729,28.755,7.933c0.63,0.218,0.856,0.054,1.112-0.477
		c3.846-8.005,6.785-16.318,9.25-24.79c0.021-0.048,1.046-1.84,1.046-1.996c-23.024,0-50.131,0-73.185,0c0-2.209,0-2.127,0-4.306
		c11.25,0,27.454,0,38.746,0c0-4.161,0-8.72,0-12.913c-13.566,0-29.053,0.008-42.701,0.008c0-2.317-0.347-6.327-0.347-8.618
		c13.589,0,29.339,0,43.048,0c0-0.091,0-0.117,0-0.112c0-4.901,0-7.87,0-12.8c0-2.507,1.645-4.303,4.309-4.306
		c5.967-0.01,11.241,0,17.216,0c0,6.305,0,10.869,0,17.218c14.647,0,28.403,0,43.045,0c0,2.322-0.496,6.263-0.496,8.552
		c-14.565,0-27.915,0.058-42.549,0.058c0,4.179,0,8.725,0,12.913c12.53,0,26.101,0,38.741,0
		c-3.824,13.548-11.435,25.895-18.683,38.125c0.798,0.279,1.519,0.545,2.245,0.789c15.521,5.221,31.232,9.821,47.13,13.86
		c2.425,0.62,4.857,1.201,7.298,1.788c0.168,0.041,8.42,2.294,14.588,3.965v-99.12C199.563,14.875,184.686,0,166.335,0H33.226
		C14.874,0,0,14.875,0,33.225v133.112c0,18.347,14.874,33.228,33.226,33.228h133.109c18.351,0,33.228-14.881,33.228-33.228v-4.075
		C191.085,158.579,175.471,151.755,171.734,150.104z"/>
	<path d="M60.881,103.953c-8.274,0-16.701,1.967-21.516,4.297c-4.663,2.729-6.581,4.51-8.615,8.611
		c-3.248,7.621-0.548,13.644,4.02,18.213c4.569,4.568,12.943,7.687,21.808,7.635c5.354-0.036,12.294-2.375,17.22-4.307
		c9.955-3.926,18.693-9.532,25.832-17.235c1.291-1.396,2.979-2.797,4.304-4.306c-3.373-1.27-9.372-3.984-12.915-5.299
		C81.047,107.594,72.222,103.953,60.881,103.953z"/>
</g>
</svg>
